<svg xmlns="http://www.w3.org/2000/svg" viewBox="0 0 1000 300" width="1000" height="300">
  <!-- 求真务实 - 毛体狂草风格SVG路径，深红色填充 -->
  <g fill="#cc0000" stroke="none">
    <!-- 求 - 狂草风格，流畅连贯 -->
    <path d="M 50 80 
             C 60 40, 90 30, 120 50
             C 150 70, 160 100, 140 130
             C 120 160, 80 170, 50 150
             C 20 130, 15 100, 30 75
             C 45 50, 70 45, 90 60
             C 110 75, 115 95, 100 115
             C 85 135, 60 140, 40 125
             C 20 110, 25 90, 45 80 Z" />
    
    <!-- 真 - 结构清晰，笔画有力 -->
    <path d="M 200 50 
             L 220 45
             L 230 60
             L 225 80
             L 210 90
             L 195 85
             L 190 70
             L 195 55 Z" />
    <path d="M 205 100
             L 225 95
             L 235 110
             L 230 130
             L 215 140
             L 200 135
             L 195 120
             L 200 105 Z" />
    <path d="M 200 150
             L 220 145
             L 230 160
             L 225 180
             L 210 190
             L 195 185
             L 190 170
             L 195 155 Z" />
    <path d="M 200 200
             L 220 195
             L 230 210
             L 225 230
             L 210 240
             L 195 235
             L 190 220
             L 195 205 Z" />
    
    <!-- 务 - 流畅的连笔 -->
    <path d="M 300 60
             C 320 30, 360 25, 390 45
             C 420 65, 430 95, 410 125
             C 390 155, 350 165, 320 145
             C 290 125, 280 95, 300 70
             C 320 45, 350 40, 370 60
             C 390 80, 385 105, 360 120
             C 335 135, 305 130, 290 110
             C 275 90, 285 70, 310 65 Z" />
    <path d="M 340 160
             L 360 155
             L 370 170
             L 365 190
             L 350 200
             L 335 195
             L 330 180
             L 335 165 Z" />
    
    <!-- 实 - 复杂结构，笔画丰富 -->
    <path d="M 450 55
             C 470 25, 510 20, 540 40
             C 570 60, 580 90, 560 120
             C 540 150, 500 160, 470 140
             C 440 120, 430 90, 450 65
             C 470 40, 500 35, 520 55
             C 540 75, 535 100, 510 115
             C 485 130, 455 125, 440 105
             C 425 85, 435 65, 460 60 Z" />
    <path d="M 480 140
             L 500 135
             L 510 150
             L 505 170
             L 490 180
             L 475 175
             L 470 160
             L 475 145 Z" />
    <path d="M 490 190
             L 510 185
             L 520 200
             L 515 220
             L 500 230
             L 485 225
             L 480 210
             L 485 195 Z" />
    <path d="M 500 240
             L 520 235
             L 530 250
             L 525 270
             L 510 280
             L 495 275
             L 490 260
             L 495 245 Z" />
  </g>
</svg>
